{"title":"Blended.2014.720p.BluRay.x264-SPARKS GREEK SUBS","uid":11014693,"size":5891079271,"categoryP":"video","categoryS":"hd___movies","magnet":"?xt=urn:btih:bf5e056e7b9c6de70754461e19e7df09d6a496b1&amp;dn=Blended.2014.720p.BluRay.x264-SPARKS+GREEK+SUBS&amp;tr=udp%3A%2F%2Ftracker.openbittorrent.com%3A80&amp;tr=udp%3A%2F%2Fopen.demonii.com%3A1337&amp;tr=udp%3A%2F%2Ftracker.coppersurfer.tk%3A6969&amp;tr=udp%3A%2F%2Fexodus.desync.com%3A6969","seeders":3,"leechers":0,"uploader":"holyANT","files":-1,"time":1410449336,"description":"Ystera apo ena rantevoy sta tyfla metaksy tous, to opoio ekselixthke poly asxhma, enas antras kai mia gynaika mazi me ta synolika pente paidia tous synantioyntai se ena taksidi diakopwn sthn Afrikh.\nAfter a bad blind date, a man and woman find themselves stuck together at a resort for families, where their attraction grows as their respective kids benefit from the burgeoning relationship.\n\nEidos Tainias : Comedy\nXwra Paragwghs : USA\nGlwssa : Agglika\nYpotitloi : Ellhnikoi\nDiarkeia : 117min\nSkhnothesia : Frank Coraci\nSenario : Ivan Menchell, Clare Sera\nHthopoioi : Adam Sandler, Bella Thorne, Drew Barrymore, Terry Crews\n &lt;a href=&quot;\nhttp://image.bayimg.com/8a74524f7d297659fe235c855261db77850d9414.jpg&quot; rel=&quot;nofollow&quot; target=&quot;_NEW&quot;&gt;\nhttp://image.bayimg.com/8a74524f7d297659fe235c855261db77850d9414.jpg&lt;/a&gt;\n\nGeneral\nUnique ID : 250261837676029254197527299344805779147 (0xBC46AD3CFB7042278DA137FDA925D6CB)\nComplete name : ddd/Blended.2014.720p.BluRay.x264-SPARKS/Blended.2014.720p.BluRay.x264-SPARKS.mkv\nFormat : Matroska\nFormat version : Version 4 / Version 2\nFile size : 5.46 GiB\nDuration : 1h 57mn\nOverall bit rate : 6 670 Kbps\nEncoded date : UTC 2014-08-13 17:17:46\nWriting application : mkvmerge v6.2.0 ('Promised Land') built on Apr 28 2013 12:22:01\nWriting library : libebml v1.3.0 + libmatroska v1.4.0\n\nVideo\nID : 1\nFormat : AVC\nFormat/Info : Advanced Video Codec\nFormat profile : &lt;a class=&quot;__cf_email__&quot; href=&quot;/cdn-cgi/l/email-protection&quot; data-cfemail=&quot;a5edccc2cde5e9918b94&quot;&gt;[email&amp;#160;protected]&lt;/a&gt;&lt;script cf-hash='f9e31' type=&quot;text/javascript&quot;&gt;\n/* &lt;![CDATA[ */!function(){try{var t=&quot;currentScript&quot;in document?document.currentScript:function(){for(var t=document.getElementsByTagName(&quot;script&quot;),e=t.length;e--;)if(t[e].getAttribute(&quot;cf-hash&quot;))return t[e]}();if(t&amp;&amp;t.previousSibling){var e,r,n,i,c=t.previousSibling,a=c.getAttribute(&quot;data-cfemail&quot;);if(a){for(e=&quot;&quot;,r=parseInt(a.substr(0,2),16),n=2;a.length-n;n+=2)i=parseInt(a.substr(n,2),16)^r,e+=String.fromCharCode(i);e=document.createTextNode(e),c.parentNode.replaceChild(e,c)}}}catch(u){}}();/* ]]&gt; */&lt;/script&gt;\nFormat settings, CABAC : Yes\nFormat settings, ReFrames : 5 frames\nCodec ID : V_MPEG4/ISO/AVC\nDuration : 1h 57mn\nBit rate : 5 160 Kbps\nWidth : 1 280 pixels\nHeight : 688 pixels\nDisplay aspect ratio : 1.860\nFrame rate : 23.976 fps\nColor space : YUV\nChroma subsampling : 4:2:0\nBit depth : 8 bits\nScan type : Progressive\nBits/(Pixel*Frame) : 0.244\nStream size : 4.12 GiB (75%)\nWriting library : x264 core 142 r2431 ac76440\nEncoding settings : cabac=1 / ref=5 / deblock=1:0:0 / analyse=0x3:0x133 / me=umh / subme=7 / psy=1 / psy_rd=1.00:0.00 / mixed_ref=1 / me_range=16 / chroma_me=1 / trellis=1 / 8x8dct=1 / cqm=0 / deadzone=21,11 / fast_pskip=0 / chroma_qp_offset=-2 / threads=18 / lookahead_threads=3 / sliced_threads=0 / nr=0 / decimate=1 / interlaced=0 / bluray_compat=0 / constrained_intra=0 / bframes=3 / b_pyramid=2 / b_adapt=1 / b_bias=0 / direct=1 / weightb=1 / open_gop=0 / weightp=2 / keyint=250 / keyint_min=23 / scenecut=40 / intra_refresh=0 / rc_lookahead=40 / rc=2pass / mbtree=1 / bitrate=5160 / ratetol=1.0 / qcomp=0.60 / qpmin=0 / qpmax=69 / qpstep=4 / cplxblur=20.0 / qblur=0.5 / ip_ratio=1.40 / aq=1:1.00\nLanguage : English\nDefault : Yes\nForced : No\n\nAudio\nID : 2\nFormat : DTS\nFormat/Info : Digital Theater Systems\nCodec ID : A_DTS\nDuration : 1h 57mn\nBit rate mode : Constant\nBit rate : 1 510 Kbps\nChannel(s) : 6 channels\nChannel positions : Front: L C R, Side: L R, LFE\nSampling rate : 48.0 KHz\nBit depth : 24 bits\nCompression mode : Lossy\nStream size : 1.24 GiB (23%)\nLanguage : English\nDefault : Yes\nForced : No\n\nMenu\n00:00:00.000 : en:00:00:00.000\n00:10:32.715 : en:00:10:32.715\n00:21:16.150 : en:00:21:16.150\n00:32:56.433 : en:00:32:56.433\n00:42:23.624 : en:00:42:23.624\n00:49:49.195 : en:00:49:49.195\n00:58:11.822 : en:00:58:11.822\n01:10:44.782 : en:01:10:44.782\n01:19:45.406 : en:01:19:45.406\n01:33:10.293 : en:01:33:10.293\n01:41:25.246 : en:01:41:25.246\n01:50:36.046 : en:01:50:36.046\n","torrent":{"xt":"urn:btih:bf5e056e7b9c6de70754461e19e7df09d6a496b1","amp;dn":"Blended.2014.720p.BluRay.x264-SPARKS+GREEK+SUBS","amp;tr":["udp%3A%2F%2Ftracker.openbittorrent.com%3A80","udp%3A%2F%2Fopen.demonii.com%3A1337","udp%3A%2F%2Ftracker.coppersurfer.tk%3A6969","udp%3A%2F%2Fexodus.desync.com%3A6969"],"infoHash":"bf5e056e7b9c6de70754461e19e7df09d6a496b1","infoHashBuffer":{"type":"Buffer","data":[191,94,5,110,123,156,109,231,7,84,70,30,25,231,223,9,214,164,150,177]},"announce":[],"urlList":[]}}